<svg width="34" height="34" viewBox="0 0 27 27" fill="none" xmlns="http://www.w3.org/2000/svg">
<path d="M16.2967 10.9508C17.1293 10.9508 17.9432 10.7039 18.6355 10.2413C19.3278 9.77871 19.8674 9.12123 20.186 8.352C20.5047 7.58277 20.588 6.73633 20.4256 5.91972C20.2632 5.10311 19.8622 4.353 19.2735 3.76426C18.6847 3.17551 17.9346 2.77458 17.118 2.61214C16.3014 2.44971 15.455 2.53307 14.6857 2.8517C13.9165 3.17033 13.259 3.7099 12.7964 4.40219C12.3339 5.09448 12.087 5.90839 12.087 6.741" stroke="black" stroke-width="0.5" stroke-linecap="round" stroke-linejoin="round"/>
<path d="M20.6786 10.9508C20.6786 9.78861 20.2169 8.67406 19.3952 7.8523C18.5734 7.03054 17.4589 6.56888 16.2967 6.56888C15.1346 6.56888 14.02 7.03054 13.1983 7.8523C12.3765 8.67406 11.9149 9.78861 11.9149 10.9508C11.9149 12.8098 13.0775 14.3893 14.7122 15.0255V22.4179L16.2967 24.4688L17.8819 22.4179V15.0255C19.5159 14.3893 20.6786 12.8098 20.6786 10.9508Z" stroke="black" stroke-width="0.5" stroke-linecap="round" stroke-linejoin="round"/>
<path d="M11.0177 13.9691L6.65098 18.3358L6.32135 20.9064L8.89198 20.5774L13.2592 16.2101" stroke="black" stroke-width="0.5" stroke-linecap="round" stroke-linejoin="round"/>
</svg>
