<svg width="24" height="24" viewBox="0 0 24 24" fill="none" xmlns="http://www.w3.org/2000/svg">
<path d="M6.99999 7H7.00899M13 14H19C19.932 14 20.398 14 20.765 14.152C21.0078 14.2525 21.2284 14.3999 21.4143 14.5857C21.6001 14.7716 21.7475 14.9922 21.848 15.235C22 15.602 22 16.068 22 17C22 17.932 22 18.398 21.848 18.765C21.7475 19.0078 21.6001 19.2284 21.4143 19.4143C21.2284 19.6001 21.0078 19.7475 20.765 19.848C20.398 20 19.932 20 19 20H13M15 5H19C19.932 5 20.398 5 20.765 5.152C21.0078 5.25251 21.2284 5.3999 21.4143 5.58572C21.6001 5.77155 21.7475 5.99218 21.848 6.235C22 6.602 22 7.068 22 8C22 8.932 22 9.398 21.848 9.765C21.7475 10.0078 21.6001 10.2284 21.4143 10.4143C21.2284 10.6001 21.0078 10.7475 20.765 10.848C20.398 11 19.932 11 19 11H15M6.99999 2C5.89904 1.99967 4.82876 2.36271 3.95522 3.03281C3.08169 3.7029 2.45374 4.64257 2.16882 5.70602C1.88389 6.76946 1.95793 7.89721 2.37944 8.91428C2.80094 9.93134 3.54635 10.7809 4.49999 11.331V17.843C4.49999 18.661 4.49999 19.069 4.65199 19.437C4.80399 19.804 5.09399 20.093 5.67199 20.672L6.99999 22L9.10799 19.892C9.20499 19.795 9.25399 19.746 9.29399 19.693C9.39994 19.5545 9.46785 19.3908 9.49099 19.218C9.49999 19.152 9.49999 19.083 9.49999 18.946C9.49999 18.835 9.49999 18.779 9.49399 18.725C9.47841 18.5833 9.43272 18.4466 9.35999 18.324C9.32067 18.2617 9.27794 18.2016 9.23199 18.144L7.99999 16.5L8.69999 15.567C9.09599 15.038 9.29499 14.774 9.39699 14.466C9.49999 14.158 9.49999 13.828 9.49999 13.166V11.331C10.4536 10.7809 11.199 9.93134 11.6205 8.91428C12.042 7.89721 12.1161 6.76946 11.8312 5.70602C11.5462 4.64257 10.9183 3.7029 10.0448 3.03281C9.17122 2.36271 8.10094 1.99967 6.99999 2Z" stroke="#A3A3A3" stroke-width="1.5" stroke-linecap="round" stroke-linejoin="round"/>
</svg>
