<svg width="14" height="24" viewBox="0 0 14 24" fill="none" xmlns="http://www.w3.org/2000/svg">
<path d="M0.759419 12.724L11.9054 23.344C12.0914 23.5213 12.3385 23.6202 12.5954 23.6202C12.8524 23.6202 13.0994 23.5213 13.2854 23.344L13.2974 23.332C13.3879 23.246 13.4599 23.1426 13.5092 23.0279C13.5584 22.9133 13.5838 22.7898 13.5838 22.665C13.5838 22.5402 13.5584 22.4167 13.5092 22.3021C13.4599 22.1874 13.3879 22.0839 13.2974 21.998L2.80142 11.998L13.2974 2.00199C13.3879 1.91604 13.4599 1.81259 13.5092 1.69792C13.5584 1.58326 13.5838 1.45977 13.5838 1.33499C13.5838 1.2102 13.5584 1.08672 13.5092 0.972054C13.4599 0.857388 13.3879 0.753935 13.2974 0.667988L13.2854 0.655987C13.0994 0.478697 12.8524 0.379795 12.5954 0.379795C12.3385 0.379795 12.0914 0.478697 11.9054 0.655987L0.759419 11.276C0.661395 11.3694 0.583357 11.4817 0.530035 11.6062C0.476714 11.7306 0.449219 11.8646 0.449219 12C0.449219 12.1354 0.476714 12.2694 0.530035 12.3938C0.583357 12.5183 0.661395 12.6306 0.759419 12.724Z" fill="black"/>
</svg>
