<svg width="24" height="24" viewBox="0 0 24 24" fill="none" xmlns="http://www.w3.org/2000/svg">
<path d="M17.25 1.5H6.75C5.50736 1.5 4.5 2.50736 4.5 3.75V20.25C4.5 21.4926 5.50736 22.5 6.75 22.5H17.25C18.4926 22.5 19.5 21.4926 19.5 20.25V3.75C19.5 2.50736 18.4926 1.5 17.25 1.5Z" stroke="#A3A3A3" stroke-width="1.5" stroke-linejoin="round"/>
<path d="M9.75 3.75H14.25" stroke="#A3A3A3" stroke-width="1.5" stroke-linecap="round" stroke-linejoin="round"/>
<path d="M15.6319 13.3366C15.455 13.1481 15.2407 12.9986 15.0028 12.8977C14.7648 12.7967 14.5084 12.7465 14.25 12.7502C13.7062 12.7502 13.2145 12.9569 12.8653 13.3328C12.5161 13.7088 12.3403 14.2291 12.3806 14.786C12.4608 15.8866 13.2994 16.7814 14.25 16.7814C15.2006 16.7814 16.0378 15.8866 16.1189 14.7869C16.1601 14.2347 15.9867 13.7196 15.6319 13.3366ZM17.4229 21.0002H11.077C10.9944 21.0015 10.9125 20.9847 10.8371 20.9509C10.7617 20.9171 10.6946 20.8672 10.6406 20.8047C10.582 20.7346 10.54 20.6521 10.5176 20.5635C10.4952 20.4749 10.493 20.3824 10.5112 20.2928C10.6636 19.4697 11.1384 18.7783 11.8847 18.2932C12.5475 17.8624 13.3875 17.6252 14.25 17.6252C15.1125 17.6252 15.9525 17.8624 16.6153 18.2932C17.3615 18.7783 17.8364 19.4697 17.9887 20.2928C18.0069 20.3824 18.0048 20.4749 17.9824 20.5635C17.96 20.6521 17.9179 20.7346 17.8594 20.8047C17.8053 20.8672 17.7383 20.9171 17.6629 20.9509C17.5875 20.9847 17.5056 21.0015 17.4229 21.0002Z" fill="#A3A3A3"/>
</svg>
