<svg width="21" height="16" viewBox="0 0 21 16" fill="none" xmlns="http://www.w3.org/2000/svg">
<path d="M2.72908 15.9996H17.7724C19.589 15.9996 20.5015 15.096 20.5015 13.3058V2.69386C20.5015 0.903638 19.589 0 17.7724 0H2.72908C0.921437 0.0003708 0 0.895481 0 2.69386V13.3061C0 15.1049 0.921437 15.9996 2.72908 15.9996ZM1.3994 2.76431C1.3994 1.8603 1.88589 1.39977 2.75504 1.39977H17.7465C18.6067 1.39977 19.1021 1.8603 19.1021 2.76431V5.4756H1.3994V2.76431ZM4.24121 3.4336C4.24121 3.01645 3.8934 2.65122 3.46772 2.65122C3.03314 2.65122 2.68533 3.01645 2.68533 3.4336C2.68533 3.84185 3.03314 4.20709 3.46772 4.20709C3.8934 4.20709 4.24121 3.84185 4.24121 3.4336ZM6.80491 3.4336C6.80491 3.01645 6.45747 2.65122 6.03143 2.65122C5.60538 2.65122 5.25794 3.01645 5.25794 3.4336C5.25794 3.84185 5.60575 4.20709 6.03143 4.20709C6.45747 4.20709 6.80491 3.84185 6.80491 3.4336ZM9.36862 3.4336C9.36862 3.01645 9.02118 2.65122 8.59513 2.65122C8.16908 2.65122 7.82165 3.01645 7.82165 3.4336C7.82165 3.84185 8.16946 4.20709 8.59513 4.20709C9.02081 4.20709 9.36862 3.84185 9.36862 3.4336ZM2.75504 14.6002C1.88589 14.6002 1.3994 14.1397 1.3994 13.2357V6.7441H19.1017V13.2361C19.1017 14.1401 18.6063 14.6006 17.7461 14.6006L2.75504 14.6002Z" fill="#A3A3A3"/>
</svg>
