<svg width="16" height="16" viewBox="0 0 16 16" fill="none" xmlns="http://www.w3.org/2000/svg">
<path d="M2.66667 8.20531V12V3.99998V8.20531ZM9.718 13.4873C9.958 13.4873 10.1633 13.402 10.334 13.2313C10.5047 13.0611 10.59 12.8558 10.59 12.6153C10.59 12.3753 10.5047 12.17 10.334 11.9993C10.1633 11.8291 9.958 11.744 9.718 11.744C9.478 11.744 9.27267 11.8291 9.102 11.9993C8.93133 12.1695 8.846 12.3749 8.846 12.6153C8.846 12.8558 8.93133 13.0611 9.102 13.2313C9.27267 13.4015 9.478 13.4869 9.718 13.4873ZM13.3333 7.99998C13.5733 7.99998 13.7787 7.91465 13.9493 7.74398C14.12 7.57376 14.2053 7.36842 14.2053 7.12798C14.2053 6.88798 14.12 6.68265 13.9493 6.51198C13.7791 6.34176 13.5738 6.25665 13.3333 6.25665C13.0929 6.25665 12.8876 6.34176 12.7173 6.51198C12.5467 6.68265 12.4613 6.88798 12.4613 7.12798C12.4613 7.36798 12.5467 7.57331 12.7173 7.74398C12.888 7.91465 13.0933 7.99998 13.3333 7.99998ZM4.33333 6.99998H7.84667V6.33331H4.33333V6.99998ZM4.33333 9.66665H7.84667V8.99998H4.33333V9.66665ZM3.07733 12.6666C2.77022 12.6666 2.514 12.564 2.30867 12.3586C2.10333 12.1533 2.00044 11.8969 2 11.5893V4.41065C2 4.10354 2.10289 3.84731 2.30867 3.64198C2.51444 3.43665 2.77044 3.33376 3.07667 3.33331H12.9233C13.23 3.33331 13.486 3.4362 13.6913 3.64198C13.8967 3.84776 13.9996 4.10398 14 4.41065H13.3333C13.3333 4.30798 13.2907 4.21376 13.2053 4.12798C13.12 4.0422 13.026 3.99954 12.9233 3.99998H3.07667C2.97444 3.99998 2.88044 4.04265 2.79467 4.12798C2.70889 4.21331 2.66622 4.30754 2.66667 4.41065V11.59C2.66667 11.6922 2.70933 11.7862 2.79467 11.872C2.88 11.9578 2.974 12.0004 3.07667 12H6.846V12.6666H3.07733ZM9.718 14.1533C9.29089 14.1533 8.92756 14.004 8.628 13.7053C8.32889 13.4058 8.17933 13.0424 8.17933 12.6153C8.17933 12.242 8.29378 11.9173 8.52267 11.6413C8.75111 11.3649 9.03844 11.19 9.38467 11.1166V9.53865H13V8.62665C12.6538 8.55331 12.3664 8.37865 12.138 8.10265C11.9091 7.82665 11.7947 7.50176 11.7947 7.12798C11.7947 6.70087 11.9444 6.33776 12.244 6.03865C12.5431 5.73909 12.9062 5.58931 13.3333 5.58931C13.7604 5.58931 14.1238 5.73909 14.4233 6.03865C14.7229 6.3382 14.8724 6.70131 14.872 7.12798C14.872 7.50131 14.7576 7.8262 14.5287 8.10265C14.3002 8.37865 14.0129 8.55354 13.6667 8.62731V10.2053H10.0513V11.1166C10.3976 11.1904 10.6849 11.3653 10.9133 11.6413C11.1422 11.9169 11.2567 12.2415 11.2567 12.6153C11.2567 13.0429 11.1071 13.4062 10.808 13.7053C10.5089 14.0044 10.1456 14.154 9.718 14.154" fill="#414141"/>
</svg>
