<svg width="12" height="13" viewBox="0 0 12 13" fill="none" xmlns="http://www.w3.org/2000/svg">
<path d="M6.00034 7.00013C5.90567 7.00013 5.82633 6.96813 5.76233 6.90413C5.69834 6.84013 5.66656 6.76102 5.667 6.66679V1.23079C5.667 1.13657 5.699 1.05746 5.763 0.993461C5.827 0.929461 5.90634 0.897461 6.001 0.897461C6.09567 0.897461 6.17478 0.929461 6.23834 0.993461C6.30189 1.05746 6.33367 1.13657 6.33367 1.23079V6.66679C6.33367 6.76146 6.30167 6.84057 6.23767 6.90413C6.17367 6.96768 6.09434 6.99968 5.99967 7.00013M6.001 12.3335C5.26145 12.3335 4.56811 12.1944 3.921 11.9161C3.27389 11.6379 2.70922 11.257 2.227 10.7735C1.74478 10.2899 1.36389 9.72546 1.08433 9.08013C0.804779 8.43479 0.665668 7.74146 0.667002 7.00013C0.667002 6.34813 0.784557 5.71968 1.01967 5.11479C1.25478 4.50991 1.58767 3.96657 2.01834 3.48479C2.07789 3.40613 2.15367 3.36968 2.24567 3.37546C2.33767 3.38124 2.42122 3.42124 2.49634 3.49546C2.55945 3.55946 2.58545 3.63324 2.57434 3.71679C2.56322 3.80035 2.52789 3.88168 2.46834 3.96079C2.09989 4.37768 1.81856 4.84857 1.62433 5.37346C1.43056 5.89791 1.33367 6.44013 1.33367 7.00013C1.33367 8.30013 1.78656 9.40302 2.69234 10.3088C3.59811 11.2146 4.70078 11.6672 6.00034 11.6668C7.29989 11.6663 8.40278 11.2137 9.309 10.3088C10.2152 9.40391 10.6679 8.30102 10.667 7.00013C10.667 6.44191 10.5706 5.89879 10.3777 5.37079C10.1852 4.84235 9.90211 4.36968 9.52834 3.95279C9.46878 3.87679 9.43322 3.79524 9.42167 3.70813C9.411 3.62102 9.43678 3.54657 9.499 3.48479C9.57234 3.41146 9.65456 3.37413 9.74567 3.37279C9.83589 3.37146 9.91234 3.40879 9.975 3.48479C10.4079 3.96702 10.7426 4.50946 10.979 5.11213C11.2154 5.71479 11.3337 6.34413 11.3337 7.00013C11.3337 7.74013 11.1946 8.43324 10.9163 9.07946C10.6381 9.72568 10.2572 10.2906 9.77367 10.7741C9.29011 11.2577 8.72567 11.6384 8.08034 11.9161C7.435 12.1939 6.74167 12.333 6.00034 12.3335" fill="#A3A3A3"/>
</svg>
