<svg width="12" height="12" viewBox="0 0 12 12" fill="none" xmlns="http://www.w3.org/2000/svg">
<path d="M1 4.68423H11M1 4.68423V10.4737C1 10.6133 1.05545 10.7472 1.15415 10.8459C1.25286 10.9446 1.38673 11 1.52632 11H10.4737C10.6133 11 10.7471 10.9446 10.8458 10.8459C10.9445 10.7472 11 10.6133 11 10.4737V4.68423M1 4.68423V2.31581C1 2.17622 1.05545 2.04235 1.15415 1.94364C1.25286 1.84494 1.38673 1.78949 1.52632 1.78949H10.4737C10.6133 1.78949 10.7471 1.84494 10.8458 1.94364C10.9445 2.04235 11 2.17622 11 2.31581V4.68423" stroke="#A3A3A3" stroke-width="0.789474" stroke-linejoin="round"/>
<path d="M3.89453 7.84219L5.47348 9.42114L8.63137 6.26324" stroke="#A3A3A3" stroke-width="0.789474" stroke-linecap="round" stroke-linejoin="round"/>
<path d="M3.89453 1.00006V3.10532M8.10506 1.00006V3.10532" stroke="#A3A3A3" stroke-width="0.789474" stroke-linecap="round"/>
</svg>
