<svg width="24" height="16" viewBox="0 0 24 16" fill="none" xmlns="http://www.w3.org/2000/svg">
<path d="M22.3676 14.7413V11.802H22.8109L23.2229 11.3947L18.3416 6.51334H17.7356V7.35934H16.3156L15.4696 6.51334H13.1256L8.24959 11.3893L8.66159 11.8013H9.31426V14.7407H8.04026C6.13492 12.918 5.62826 8.78401 5.80626 5.70867L5.83759 5.64601H5.85292C6.68626 5.64601 7.42492 6.05001 7.88492 6.67267L7.88959 6.67934C8.23626 7.14801 8.44492 7.73801 8.44492 8.37601C8.44492 8.81601 8.34626 9.23267 8.16892 9.60534L8.17626 9.58801C8.54833 9.49278 8.8942 9.31506 9.18826 9.06801L9.18426 9.07134C9.49059 8.80493 9.73609 8.47579 9.90413 8.10623C10.0722 7.73667 10.1588 7.33531 10.1583 6.92934C10.1583 6.29267 9.94893 5.70534 9.59559 5.23201L9.60092 5.23934C9.29776 4.81657 8.86901 4.50016 8.37565 4.33511C7.8823 4.17006 7.34946 4.16477 6.85292 4.32001L6.87026 4.31534C7.04692 4.20534 7.25026 4.10801 7.46426 4.03401L7.48559 4.02734C7.77648 3.92003 8.08421 3.86562 8.39426 3.86667C9.11626 3.86667 9.77026 4.15534 10.2483 4.62267L10.2476 4.62201C10.3189 4.24811 10.2976 3.86246 10.1856 3.49867L10.1903 3.51534C10.0797 3.19108 9.90432 2.89273 9.67476 2.63844C9.4452 2.38415 9.16627 2.17926 8.85497 2.03624C8.54368 1.89322 8.20652 1.81507 7.86405 1.80655C7.52157 1.79803 7.18095 1.85931 6.86292 1.98667L6.87959 1.98067C6.71866 2.03596 6.56221 2.10349 6.41159 2.18267L6.43092 2.17334C6.3853 1.96491 6.31805 1.76181 6.23026 1.56734L6.23826 1.58667C5.65159 0.271341 4.30626 -0.349993 3.23093 0.193341C2.94069 0.34205 2.69122 0.559476 2.50426 0.826674L2.50026 0.833341C2.87878 0.870274 3.24343 0.995181 3.5651 1.19809C3.88678 1.401 4.15656 1.6763 4.35292 2.00201L4.35892 2.01267C4.10959 1.88748 3.84553 1.79408 3.57293 1.73467L3.55026 1.73067C1.89693 1.37534 0.323592 2.27334 0.0415919 3.74067C-0.0337569 4.1432 -0.00879962 4.55808 0.114259 4.94867L0.109592 4.93134C0.479158 4.51144 0.957636 4.2019 1.49213 4.03695C2.02663 3.87201 2.59633 3.85806 3.13826 3.99667L3.11693 3.99201C3.38959 4.04934 3.63092 4.13201 3.85692 4.24067L3.83759 4.23201C3.29668 4.15959 2.74646 4.25035 2.25746 4.49265C1.76846 4.73495 1.36296 5.11776 1.09293 5.59201L1.08559 5.60534C0.803679 6.0809 0.655566 6.62383 0.656925 7.17667C0.656925 8.22201 1.17493 9.14601 1.96893 9.70601L1.97893 9.71267C2.32027 9.94267 2.71023 10.0905 3.11826 10.1447L3.13226 10.146C2.83828 9.65858 2.68357 9.09989 2.68492 8.53067C2.68492 7.94867 2.84292 7.40334 3.11892 6.93601L3.11092 6.95067C3.31582 6.59365 3.59692 6.28619 3.9342 6.0502C4.27147 5.81421 4.65664 5.65549 5.06226 5.58534L5.07892 5.58267C4.13426 9.88467 3.87293 12.882 4.65226 14.74H2.38159V15.9933H23.8136V14.74H22.3676V14.7413ZM17.0676 11.87H21.8449V14.7413H17.0676V11.87ZM9.82692 11.3007L13.1269 8.00067L16.4269 11.3007V14.7413H12.8036V12.152H10.9709V14.7413H9.82292V11.3007H9.82692Z" fill="#A3A3A3"/>
</svg>
