<svg width="24" height="24" viewBox="0 0 24 24" fill="none" xmlns="http://www.w3.org/2000/svg">
<path d="M4.793 4.293C4.98053 4.10553 5.23483 4.00021 5.5 4.00021C5.76516 4.00021 6.01947 4.10553 6.207 4.293L9.414 7.5L8 8.914L7.5 8.414V10H3.5V8.414L3 8.914L1.586 7.5L4.793 4.293ZM12.707 9.293C12.5195 9.10553 12.2652 9.00021 12 9.00021C11.7348 9.00021 11.4805 9.10553 11.293 9.293L5.086 15.5L6.5 16.914L7.5 15.914V20H10.5V17.5C10.5 17.1022 10.658 16.7206 10.9393 16.4393C11.2206 16.158 11.6022 16 12 16C12.3978 16 12.7794 16.158 13.0607 16.4393C13.342 16.7206 13.5 17.1022 13.5 17.5V20H16.5V15.914L17.5 16.914L18.914 15.5L12.707 9.293ZM20 8.414L21 9.414L22.414 8L18.707 4.293C18.5195 4.10553 18.2652 4.00021 18 4.00021C17.7348 4.00021 17.4805 4.10553 17.293 4.293L13.586 8L15 9.414L16 8.414V11H20V8.414Z" fill="#A3A3A3"/>
</svg>
