<svg width="16" height="16" viewBox="0 0 16 16" fill="none" xmlns="http://www.w3.org/2000/svg">
<path d="M11 11.6842C10.6383 11.6842 10.3337 11.5776 10.0863 11.3644C9.83829 11.1517 9.71429 10.8899 9.71429 10.5789C9.71429 10.268 9.83829 10.0062 10.0863 9.79347C10.3343 9.58077 10.6389 9.47418 11 9.47368C11.3611 9.47319 11.6657 9.57979 11.9137 9.79347C12.1617 10.0062 12.2857 10.268 12.2857 10.5789C12.2857 10.8899 12.1617 11.1517 11.9137 11.3644C11.6663 11.5776 11.3617 11.6842 11 11.6842ZM8 15V14.5763C8 14.1588 8.27857 13.8179 8.83571 13.5536C9.39286 13.2893 10.1143 13.1574 11 13.1579C11.8857 13.1584 12.6071 13.2905 13.1643 13.5543C13.7214 13.8181 14 14.1588 14 14.5763V15H8ZM5.85714 6.44158C6.30171 6.44158 6.682 6.30551 6.998 6.03337C7.314 5.76123 7.47229 5.43432 7.47286 5.05263C7.47343 4.67095 7.31514 4.34404 6.998 4.07189C6.68086 3.79975 6.30057 3.66393 5.85714 3.66442C5.41371 3.66491 5.03343 3.80074 4.71629 4.07189C4.39914 4.34305 4.24114 4.66996 4.24229 5.05263C4.24343 5.4353 4.40143 5.76221 4.71629 6.03337C5.03114 6.30453 5.41143 6.4406 5.85714 6.44158ZM4.24229 10.9474C4.24229 11.3295 4.40029 11.6565 4.71629 11.9281C5.03229 12.1998 5.41257 12.3356 5.85714 12.3356C6.30171 12.3356 6.682 12.1998 6.998 11.9281C7.314 11.6565 7.47229 11.3295 7.47286 10.9474C7.47343 10.5652 7.31514 10.2383 6.998 9.96663C6.68086 9.69498 6.30057 9.55916 5.85714 9.55916C5.41371 9.55916 5.03343 9.69498 4.71629 9.96663C4.39914 10.2383 4.24114 10.5652 4.24229 10.9474ZM5.85714 11.7697C5.59257 11.7697 5.36686 11.6896 5.18 11.5295C4.99314 11.3693 4.90029 11.1753 4.90143 10.9474C4.90257 10.7194 4.99571 10.5254 5.18086 10.3653C5.366 10.2051 5.59143 10.1253 5.85714 10.1258C6.12286 10.1263 6.34857 10.2064 6.53429 10.366C6.72 10.5256 6.81314 10.7194 6.81371 10.9474C6.81429 11.1753 6.72114 11.3693 6.53429 11.5295C6.34743 11.6896 6.12171 11.7697 5.85714 11.7697ZM2 4.31579C2 3.3854 2.37229 2.60018 3.11686 1.96011C3.86143 1.32004 4.77486 1 5.85714 1C6.93943 1 7.85286 1.32004 8.59743 1.96011C9.342 2.60018 9.71429 3.3854 9.71429 4.31579V7.63158C9.71429 7.73621 9.67314 7.82365 9.59086 7.89389C9.50857 7.96414 9.40657 7.99951 9.28486 8C9.16314 8.00049 9.06143 7.96512 8.97971 7.89389C8.898 7.82267 8.85714 7.73523 8.85714 7.63158V4.31579C8.85714 3.576 8.55886 2.96123 7.96229 2.47147C7.36571 1.98172 6.664 1.73684 5.85714 1.73684C5.05029 1.73684 4.34857 1.98172 3.752 2.47147C3.15543 2.96123 2.85714 3.576 2.85714 4.31579V11.6842C2.85714 12.2845 3.08 12.8204 3.52571 13.292C3.97257 13.7636 4.524 14.0642 5.18 14.1939C5.28057 14.2214 5.366 14.2681 5.43629 14.3339C5.506 14.4007 5.54086 14.4763 5.54086 14.5608C5.54086 14.6817 5.486 14.7804 5.37629 14.8571C5.26657 14.9337 5.14 14.9553 4.99657 14.9219C4.124 14.7475 3.40657 14.3653 2.84429 13.7754C2.28143 13.1859 2 12.4888 2 11.6842V4.31579Z" fill="#414141"/>
</svg>
